<svg width="48" height="48" viewBox="0 0 48 48" fill="none" xmlns="http://www.w3.org/2000/svg">
<path fill-rule="evenodd" clip-rule="evenodd" d="M24 40C32.8366 40 40 32.8366 40 24C40 15.1634 32.8366 8 24 8C15.1634 8 8 15.1634 8 24C8 32.8366 15.1634 40 24 40ZM19.2167 23.9958C19.2167 21.3458 21.3542 19.2083 24.0042 19.2083C26.6542 19.2083 28.7917 21.3458 28.7917 23.9958C28.7917 26.6458 26.6542 28.7833 24.0042 28.7833C21.3542 28.7833 19.2167 26.6458 19.2167 23.9958ZM20.8917 23.9958C20.8917 25.7125 22.2917 27.1083 24.0042 27.1083C25.7167 27.1083 27.1167 25.7125 27.1167 23.9958C27.1167 22.2792 25.7208 20.8833 24.0042 20.8833C22.2875 20.8833 20.8917 22.2792 20.8917 23.9958ZM28.9875 20.1292C29.6042 20.1292 30.1042 19.6333 30.1042 19.0125C30.1042 18.3958 29.6042 17.8958 28.9875 17.8958C28.3708 17.8958 27.8708 18.3958 27.8708 19.0125C27.8708 19.6292 28.3667 20.1292 28.9875 20.1292ZM31.7667 16.2333C32.8625 17.325 33.2042 18.65 33.275 20.1458C33.3625 21.6875 33.3625 26.3042 33.275 27.8458C33.2 29.3417 32.8583 30.6667 31.7667 31.7583C30.675 32.8542 29.35 33.1958 27.8542 33.2667C26.3125 33.3542 21.6917 33.3542 20.15 33.2667C18.6542 33.1917 17.3333 32.85 16.2375 31.7583C15.1417 30.6667 14.8 29.3417 14.7292 27.8458C14.6417 26.3042 14.6417 21.6833 14.7292 20.1417C14.8042 18.6458 15.1417 17.3208 16.2375 16.2292C17.3333 15.1375 18.6583 14.7958 20.15 14.725C21.6917 14.6375 26.3125 14.6375 27.8542 14.725C29.35 14.8 30.675 15.1417 31.7667 16.2333ZM29.5083 31.275C30.3292 30.9458 30.9583 30.3167 31.2833 29.5C31.7015 28.4493 31.6782 26.151 31.6631 24.6611C31.6606 24.414 31.6583 24.1891 31.6583 23.9958C31.6583 23.8025 31.6606 23.5777 31.6631 23.3306C31.6782 21.8416 31.7015 19.5459 31.2833 18.4917C30.9542 17.6708 30.325 17.0417 29.5083 16.7167C28.4543 16.3008 26.1449 16.3229 24.6554 16.3372C24.4138 16.3395 24.1938 16.3417 24.0042 16.3417C23.8109 16.3417 23.586 16.3394 23.339 16.3369C21.8499 16.3218 19.5543 16.2985 18.5 16.7167C17.6792 17.0458 17.05 17.675 16.725 18.4917C16.3091 19.5457 16.3313 21.8551 16.3456 23.3446C16.3479 23.5862 16.35 23.8062 16.35 23.9958C16.35 24.1891 16.3477 24.414 16.3452 24.661C16.3301 26.1501 16.3069 28.4457 16.725 29.5C17.0542 30.3208 17.6833 30.95 18.5 31.275C19.554 31.6909 21.8635 31.6687 23.3529 31.6544C23.5945 31.6521 23.8146 31.65 24.0042 31.65C24.1975 31.65 24.4223 31.6523 24.6694 31.6548C26.1584 31.6699 28.4541 31.6931 29.5083 31.275Z" fill="white"/>
</svg>
