<svg width="48" height="48" viewBox="0 0 48 48" fill="none" xmlns="http://www.w3.org/2000/svg">
<path d="M24 8C15.1608 8 8 15.1618 8 24C8 32.8382 15.1618 40 24 40C32.8392 40 40 32.8382 40 24C40 15.1618 32.8382 8 24 8ZM31.8586 18.9615L29.2325 31.3363C29.0385 32.2137 28.5161 32.4263 27.7874 32.0134L23.7874 29.0653L21.8581 30.9234C21.6454 31.136 21.4648 31.3166 21.0519 31.3166L21.3357 27.2454L28.7484 20.5481C29.0715 20.2643 28.6772 20.1032 28.2508 20.3871L19.0895 26.1543L15.1412 24.9218C14.2834 24.6514 14.2637 24.064 15.3218 23.6511L30.7479 17.7022C31.4643 17.4441 32.0898 17.8766 31.8575 18.9605L31.8586 18.9615Z" fill="white"/>
</svg>
