<svg width="37" height="37" viewBox="0 0 37 37" fill="none" xmlns="http://www.w3.org/2000/svg">
<path d="M36.1517 8.48824C36.4102 7.62964 36.1517 7 34.9293 7H30.88C29.8497 7 29.3789 7.5447 29.1204 8.14295C29.1204 8.14295 27.0616 13.1635 24.1442 16.4187C23.2025 17.366 22.7723 17.6651 22.259 17.6651C22.0023 17.6651 21.6293 17.366 21.6293 16.5074V8.48824C21.6293 7.45792 21.332 7 20.4734 7H14.1106C13.468 7 13.0803 7.47638 13.0803 7.93061C13.0803 8.90554 14.539 9.1308 14.6885 11.8783V17.8387C14.6885 19.1441 14.454 19.3823 13.937 19.3823C12.5651 19.3823 9.22671 14.3433 7.24547 8.57502C6.85956 7.45423 6.46996 7.00185 5.43595 7.00185H1.38853C0.230807 7.00185 0 7.54655 0 8.1448C0 9.21943 1.37191 14.5372 6.39057 21.5703C9.73633 26.373 14.4466 28.9764 18.7378 28.9764C21.3099 28.9764 21.6275 28.3985 21.6275 27.4014V23.7713C21.6275 22.6154 21.8731 22.3828 22.6873 22.3828C23.2856 22.3828 24.3159 22.6856 26.7181 24.9992C29.462 27.743 29.9162 28.9746 31.458 28.9746H35.5054C36.6613 28.9746 37.2392 28.3967 36.9069 27.2556C36.5431 26.12 35.2321 24.4674 33.4928 22.512C32.5474 21.3968 31.1349 20.1966 30.7046 19.5965C30.1045 18.8228 30.2781 18.4812 30.7046 17.7943C30.7065 17.7962 35.6383 10.8498 36.1517 8.48824V8.48824Z" fill="#FFD231"/>
</svg>
