<svg width="48" height="48" viewBox="0 0 48 48" fill="none" xmlns="http://www.w3.org/2000/svg">
<path d="M24 8C15.1633 8 8 15.1633 8 24C8 32.8367 15.1633 40 24 40C32.8367 40 40 32.8367 40 24C40 15.1633 32.8367 8 24 8ZM30.1533 26.0517C30.1533 26.0517 31.5683 27.4483 31.9167 28.0967C31.9267 28.11 31.9317 28.1233 31.935 28.13C32.0767 28.3683 32.11 28.5533 32.04 28.6917C31.9233 28.9217 31.5233 29.035 31.3867 29.045H28.8867C28.7133 29.045 28.35 29 27.91 28.6967C27.5717 28.46 27.2383 28.0717 26.9133 27.6933C26.4283 27.13 26.0083 26.6433 25.585 26.6433C25.5312 26.6432 25.4778 26.6517 25.4267 26.6683C25.1067 26.7717 24.6967 27.2283 24.6967 28.445C24.6967 28.825 24.3967 29.0433 24.185 29.0433H23.04C22.65 29.0433 20.6183 28.9067 18.8183 27.0083C16.615 24.6833 14.6317 20.02 14.615 19.9767C14.49 19.675 14.7483 19.5133 15.03 19.5133H17.555C17.8917 19.5133 18.0017 19.7183 18.0783 19.9C18.1683 20.1117 18.4983 20.9533 19.04 21.9C19.9183 23.4433 20.4567 24.07 20.8883 24.07C20.9693 24.069 21.0488 24.0485 21.12 24.01C21.6833 23.6967 21.5783 21.6883 21.5533 21.2717C21.5533 21.1933 21.5517 20.3733 21.2633 19.98C21.0567 19.695 20.705 19.5867 20.4917 19.5467C20.578 19.4275 20.6918 19.3309 20.8233 19.265C21.21 19.0717 21.9067 19.0433 22.5983 19.0433H22.9833C23.7333 19.0533 23.9267 19.1017 24.1983 19.17C24.7483 19.3017 24.76 19.6567 24.7117 20.8717C24.6967 21.2167 24.6817 21.6067 24.6817 22.0667C24.6817 22.1667 24.6767 22.2733 24.6767 22.3867C24.66 23.005 24.64 23.7067 25.0767 23.995C25.1336 24.0307 25.1994 24.0498 25.2667 24.05C25.4183 24.05 25.875 24.05 27.1117 21.9283C27.4931 21.2454 27.8245 20.5358 28.1033 19.805C28.1283 19.7617 28.2017 19.6283 28.2883 19.5767C28.3523 19.5441 28.4232 19.5275 28.495 19.5283H31.4633C31.7867 19.5283 32.0083 19.5767 32.05 19.7017C32.1233 19.9 32.0367 20.505 30.6817 22.34L30.0767 23.1383C28.8483 24.7483 28.8483 24.83 30.1533 26.0517Z" fill="white"/>
</svg>
