<svg width="48" height="48" viewBox="0 0 48 48" fill="none" xmlns="http://www.w3.org/2000/svg">
<path d="M26.6717 23.7217L22.9283 21.975C22.6017 21.8233 22.3333 21.9933 22.3333 22.355V25.645C22.3333 26.0067 22.6017 26.1767 22.9283 26.025L26.67 24.2783C26.9983 24.125 26.9983 23.875 26.6717 23.7217ZM24 8C15.1633 8 8 15.1633 8 24C8 32.8367 15.1633 40 24 40C32.8367 40 40 32.8367 40 24C40 15.1633 32.8367 8 24 8ZM24 30.5C15.81 30.5 15.6667 29.7617 15.6667 24C15.6667 18.2383 15.81 17.5 24 17.5C32.19 17.5 32.3333 18.2383 32.3333 24C32.3333 29.7617 32.19 30.5 24 30.5Z" fill="white"/>
</svg>
