<svg width="24" height="24" viewBox="0 0 24 24" fill="none" xmlns="http://www.w3.org/2000/svg">
<path fill-rule="evenodd" clip-rule="evenodd" d="M11.5 4C9.24566 4 7.08365 4.89553 5.48959 6.48959C3.89553 8.08365 3 10.2457 3 12.5C3 14.7543 3.89553 16.9163 5.48959 18.5104C7.08365 20.1045 9.24566 21 11.5 21C13.7543 21 15.9163 20.1045 17.5104 18.5104C19.1045 16.9163 20 14.7543 20 12.5C20 10.2457 19.1045 8.08365 17.5104 6.48959C15.9163 4.89553 13.7543 4 11.5 4ZM11 12H7V13H11V17H12V13H16V12H12V8H11V12Z" fill="#82FF20"/>
</svg>
