<svg width="70" height="70" viewBox="0 0 70 70" fill="none" xmlns="http://www.w3.org/2000/svg">
<path d="M14.5834 20.4167H23.3334V14.5833L29.1667 8.75H37.9167L43.75 14.5833V20.4167H52.5C54.8207 20.4167 57.0463 21.3385 58.6872 22.9795C60.3282 24.6204 61.25 26.846 61.25 29.1667V52.5C61.25 54.8206 60.3282 57.0462 58.6872 58.6872C57.0463 60.3281 54.8207 61.25 52.5 61.25H14.5834C12.2627 61.25 10.0371 60.3281 8.39618 58.6872C6.75523 57.0462 5.83336 54.8206 5.83336 52.5V29.1667C5.83336 26.846 6.75523 24.6204 8.39618 22.9795C10.0371 21.3385 12.2627 20.4167 14.5834 20.4167ZM30.3742 11.6667L26.25 15.7908V20.4167H40.8334V15.7908L36.7092 11.6667H30.3742ZM14.5834 23.3333C13.0363 23.3333 11.5525 23.9479 10.4586 25.0419C9.36461 26.1358 8.75003 27.6196 8.75003 29.1667V52.5C8.75003 54.0471 9.36461 55.5308 10.4586 56.6248C11.5525 57.7188 13.0363 58.3333 14.5834 58.3333H52.5C54.0471 58.3333 55.5309 57.7188 56.6248 56.6248C57.7188 55.5308 58.3334 54.0471 58.3334 52.5V29.1667C58.3334 27.6196 57.7188 26.1358 56.6248 25.0419C55.5309 23.9479 54.0471 23.3333 52.5 23.3333H14.5834Z" fill="white"/>
</svg>
