<svg width="70" height="70" viewBox="0 0 70 70" fill="none" xmlns="http://www.w3.org/2000/svg">
<path d="M17.5 14.5833H24.7917C24.7917 12.2627 25.7135 10.0371 27.3545 8.39614C28.9954 6.7552 31.221 5.83333 33.5417 5.83333C35.8623 5.83333 38.0879 6.7552 39.7289 8.39614C41.3698 10.0371 42.2917 12.2627 42.2917 14.5833H49.5833C51.904 14.5833 54.1296 15.5052 55.7705 17.1461C57.4115 18.7871 58.3333 21.0127 58.3333 23.3333V55.4167C58.3333 57.7373 57.4115 59.9629 55.7705 61.6039C54.1296 63.2448 51.904 64.1667 49.5833 64.1667H17.5C15.1794 64.1667 12.9538 63.2448 11.3128 61.6039C9.67187 59.9629 8.75 57.7373 8.75 55.4167V23.3333C8.75 21.0127 9.67187 18.7871 11.3128 17.1461C12.9538 15.5052 15.1794 14.5833 17.5 14.5833ZM17.5 17.5C15.9529 17.5 14.4692 18.1146 13.3752 19.2085C12.2812 20.3025 11.6667 21.7862 11.6667 23.3333V55.4167C11.6667 56.9638 12.2812 58.4475 13.3752 59.5415C14.4692 60.6354 15.9529 61.25 17.5 61.25H49.5833C51.1304 61.25 52.6142 60.6354 53.7081 59.5415C54.8021 58.4475 55.4167 56.9638 55.4167 55.4167V23.3333C55.4167 21.7862 54.8021 20.3025 53.7081 19.2085C52.6142 18.1146 51.1304 17.5 49.5833 17.5H46.6667V26.25H20.4167V17.5H17.5ZM23.3333 23.3333H43.75V17.5H23.3333V23.3333ZM33.5417 8.75C31.9946 8.75 30.5108 9.36458 29.4169 10.4585C28.3229 11.5525 27.7083 13.0362 27.7083 14.5833H39.375C39.375 13.0362 38.7604 11.5525 37.6665 10.4585C36.5725 9.36458 35.0888 8.75 33.5417 8.75ZM17.5 32.0833H49.5833V35H17.5V32.0833ZM17.5 40.8333H49.5833V43.75H17.5V40.8333ZM17.5 49.5833H43.75V52.5H17.5V49.5833Z" fill="white"/>
</svg>
