<svg width="70" height="70" viewBox="0 0 70 70" fill="none" xmlns="http://www.w3.org/2000/svg">
<path d="M33.5417 52.5C45.1763 52.5 55.2942 46.0133 60.4771 36.4583C57.8497 31.6053 53.9596 27.5525 49.2182 24.7287C44.4768 21.9049 39.0603 20.415 33.5417 20.4167C28.0231 20.415 22.6066 21.9049 17.8652 24.7287C13.1237 27.5525 9.23362 31.6053 6.60626 36.4583C9.23362 41.3114 13.1237 45.3641 17.8652 48.1879C22.6066 51.0117 28.0231 52.5016 33.5417 52.5ZM33.5417 17.5C39.8516 17.4979 46.0342 19.2757 51.3792 22.6292C56.7242 25.9828 61.0149 30.776 63.7584 36.4583C61.0149 42.1407 56.7242 46.9339 51.3792 50.2874C46.0342 53.641 39.8516 55.4188 33.5417 55.4167C27.2317 55.4188 21.0492 53.641 15.7041 50.2874C10.3591 46.9339 6.06847 42.1407 3.32501 36.4583C6.06847 30.776 10.3591 25.9828 15.7041 22.6292C21.0492 19.2757 27.2317 17.4979 33.5417 17.5ZM33.5417 23.3333C37.0226 23.3333 40.361 24.7161 42.8225 27.1776C45.2839 29.639 46.6667 32.9774 46.6667 36.4583C46.6667 39.9393 45.2839 43.2777 42.8225 45.7391C40.361 48.2005 37.0226 49.5833 33.5417 49.5833C30.0607 49.5833 26.7223 48.2005 24.2609 45.7391C21.7995 43.2777 20.4167 39.9393 20.4167 36.4583C20.4167 32.9774 21.7995 29.639 24.2609 27.1776C26.7223 24.7161 30.0607 23.3333 33.5417 23.3333ZM33.5417 26.25C30.8343 26.25 28.2377 27.3255 26.3233 29.24C24.4089 31.1544 23.3333 33.7509 23.3333 36.4583C23.3333 39.1658 24.4089 41.7623 26.3233 43.6767C28.2377 45.5912 30.8343 46.6667 33.5417 46.6667C36.2491 46.6667 38.8456 45.5912 40.7601 43.6767C42.6745 41.7623 43.75 39.1658 43.75 36.4583C43.75 33.7509 42.6745 31.1544 40.7601 29.24C38.8456 27.3255 36.2491 26.25 33.5417 26.25Z" fill="white"/>
</svg>
