<svg width="70" height="70" viewBox="0 0 70 70" fill="none" xmlns="http://www.w3.org/2000/svg">
<path d="M33.5417 40.8333C45.6225 40.8333 55.4167 45.4037 55.4167 51.0417V58.3333H11.6667V51.0417C11.6667 45.4037 21.4608 40.8333 33.5417 40.8333ZM52.5 51.0417C52.5 47.0167 44.0125 43.75 33.5417 43.75C23.0708 43.75 14.5833 47.0167 14.5833 51.0417V55.4167H52.5V51.0417ZM33.5417 14.5833C36.2491 14.5833 38.8456 15.6588 40.76 17.5733C42.6745 19.4877 43.75 22.0842 43.75 24.7917C43.75 27.4991 42.6745 30.0956 40.76 32.01C38.8456 33.9245 36.2491 35 33.5417 35C30.8342 35 28.2377 33.9245 26.3233 32.01C24.4088 30.0956 23.3333 27.4991 23.3333 24.7917C23.3333 22.0842 24.4088 19.4877 26.3233 17.5733C28.2377 15.6588 30.8342 14.5833 33.5417 14.5833ZM33.5417 17.5C31.6078 17.5 29.7531 18.2682 28.3857 19.6357C27.0182 21.0031 26.25 22.8578 26.25 24.7917C26.25 26.7255 27.0182 28.5802 28.3857 29.9476C29.7531 31.3151 31.6078 32.0833 33.5417 32.0833C35.4755 32.0833 37.3302 31.3151 38.6976 29.9476C40.0651 28.5802 40.8333 26.7255 40.8333 24.7917C40.8333 22.8578 40.0651 21.0031 38.6976 19.6357C37.3302 18.2682 35.4755 17.5 33.5417 17.5V17.5Z" fill="white"/>
</svg>
